<?xml version="1.0" encoding="UTF-8" standalone="no"?>
<!-- Created with Inkscape (http://www.inkscape.org/) -->

<svg
   width="23.831795mm"
   height="21.128382mm"
   viewBox="0 0 23.831795 21.128382"
   version="1.1"
   id="svg1"
   inkscape:version="1.4.3 (0d15f75042, 2025-12-25)"
   sodipodi:docname="c.svg"
   xmlns:inkscape="http://www.inkscape.org/namespaces/inkscape"
   xmlns:sodipodi="http://sodipodi.sourceforge.net/DTD/sodipodi-0.dtd"
   xmlns="http://www.w3.org/2000/svg"
   xmlns:svg="http://www.w3.org/2000/svg">
  <sodipodi:namedview
     id="namedview1"
     pagecolor="#505050"
     bordercolor="#eeeeee"
     borderopacity="1"
     inkscape:showpageshadow="0"
     inkscape:pageopacity="0"
     inkscape:pagecheckerboard="0"
     inkscape:deskcolor="#505050"
     inkscape:document-units="mm"
     inkscape:zoom="1.824272"
     inkscape:cx="104.15114"
     inkscape:cy="107.98828"
     inkscape:window-width="1707"
     inkscape:window-height="994"
     inkscape:window-x="0"
     inkscape:window-y="0"
     inkscape:window-maximized="1"
     inkscape:current-layer="layer1">
    <inkscape:page
       x="5.7703209e-22"
       y="0"
       width="23.831797"
       height="21.128382"
       id="page2"
       margin="0"
       bleed="0" />
  </sodipodi:namedview>
  <defs
     id="defs1" />
  <g
     inkscape:label="Ebene 1"
     inkscape:groupmode="layer"
     id="layer1"
     transform="translate(-126.055,-49.39141)">
    <path
       id="rect59"
       style="opacity:1;fill:#445500;stroke:#2d3748;stroke-width:0.439972;fill-opacity:0.5"
       class="key"
       d="m 130.01769,49.611397 h 15.90645 c 2.07345,0 3.74269,1.669241 3.74269,3.742692 v 13.203027 c 0,2.073452 -1.66924,3.742693 -3.74269,3.742693 h -15.90645 c -2.07345,0 -3.74269,-1.669241 -3.74269,-3.742693 V 53.354089 c 0,-2.073451 1.66924,-3.742692 3.74269,-3.742692 z" />
    <path
       d="m 133.97976,61.720645 c -0.40923,-2.257776 -1.70745,-3.358442 -3.96522,-3.358442 -1.38289,0 -2.49767,0.437444 -3.25967,1.28411 -0.93133,1.015999 -1.43933,2.483553 -1.43933,4.148663 0,1.693332 0.52211,3.146776 1.48167,4.148664 0.80433,0.818444 1.82033,1.199443 3.16088,1.199443 2.51178,0 3.92289,-1.354665 4.23333,-4.078108 h -1.35466 c -0.11289,0.705555 -0.254,1.185333 -0.46567,1.594555 -0.42333,0.846666 -1.29822,1.326443 -2.39889,1.326443 -2.04611,0 -3.34433,-1.636888 -3.34433,-4.205108 0,-2.638776 1.22767,-4.261552 3.23144,-4.261552 0.83256,0 1.60867,0.239889 2.032,0.649111 0.381,0.352777 0.59267,0.77611 0.74789,1.552221 z"
       id="text59"
       style="font-size:14.1111px;font-family:'-apple-system', BlinkMacSystemFont, 'Segoe UI', Roboto, Helvetica, Arial, sans-serif;dominant-baseline:middle;text-anchor:middle;fill:#ffffff;stroke-width:0.439972;opacity:1;fill-opacity:1"
       class="key-text"
       transform="scale(1.0633311,0.94044084)"
       aria-label="C" />
  </g>
</svg>
