<?xml version="1.0" encoding="UTF-8" standalone="no"?>
<!-- Created with Inkscape (http://www.inkscape.org/) -->

<svg
   width="23.831795mm"
   height="21.128384mm"
   viewBox="0 0 23.831795 21.128384"
   version="1.1"
   id="svg1"
   inkscape:version="1.4.3 (0d15f75042, 2025-12-25)"
   sodipodi:docname="r.svg"
   xmlns:inkscape="http://www.inkscape.org/namespaces/inkscape"
   xmlns:sodipodi="http://sodipodi.sourceforge.net/DTD/sodipodi-0.dtd"
   xmlns="http://www.w3.org/2000/svg"
   xmlns:svg="http://www.w3.org/2000/svg">
  <sodipodi:namedview
     id="namedview1"
     pagecolor="#505050"
     bordercolor="#eeeeee"
     borderopacity="1"
     inkscape:showpageshadow="0"
     inkscape:pageopacity="0"
     inkscape:pagecheckerboard="0"
     inkscape:deskcolor="#505050"
     inkscape:document-units="mm"
     inkscape:zoom="3.648544"
     inkscape:cx="48.786585"
     inkscape:cy="51.801486"
     inkscape:window-width="1707"
     inkscape:window-height="994"
     inkscape:window-x="0"
     inkscape:window-y="0"
     inkscape:window-maximized="1"
     inkscape:current-layer="layer1">
    <inkscape:page
       x="5.7703209e-22"
       y="0"
       width="23.831797"
       height="21.128384"
       id="page2"
       margin="0"
       bleed="0" />
  </sodipodi:namedview>
  <defs
     id="defs1" />
  <g
     inkscape:label="Ebene 1"
     inkscape:groupmode="layer"
     id="layer1"
     transform="translate(-126.055,0.26079627)">
    <path
       id="rect34"
       style="opacity:1;fill:#550044;stroke:#2d3748;stroke-width:0.439972;fill-opacity:0.5"
       class="key"
       d="m 130.01769,-0.04081028 h 15.90645 c 2.07345,0 3.74269,1.66924078 3.74269,3.74269228 v 13.203027 c 0,2.073452 -1.66924,3.742692 -3.74269,3.742692 h -15.90645 c -2.07345,0 -3.74269,-1.66924 -3.74269,-3.742692 V 3.701882 c 0,-2.0734515 1.66924,-3.74269228 3.74269,-3.74269228 z" />
    <path
       d="m 126.93125,11.668532 h 3.38667 c 1.17122,0 1.69333,0.564444 1.69333,1.834443 l -0.0141,0.917222 c 0,0.634999 0.11289,1.255887 0.29633,1.67922 h 1.59455 v -0.324555 c -0.49388,-0.338666 -0.59266,-0.705555 -0.62088,-2.074332 -0.0141,-1.693332 -0.28223,-2.201331 -1.397,-2.681109 1.15711,-0.578555 1.62277,-1.2699986 1.62277,-2.4553311 0,-1.7779986 -1.10066,-2.7516645 -3.13266,-2.7516645 h -4.74133 V 16.099417 h 1.31233 z m 0,-1.15711 V 6.9695356 h 3.175 c 0.73378,0 1.15711,0.1128888 1.48167,0.3951108 0.35277,0.2963331 0.53622,0.7619994 0.53622,1.3687767 0,1.2276658 -0.62089,1.7779989 -2.01789,1.7779989 z"
       id="text34"
       style="font-size:14.1111px;font-family:'-apple-system', BlinkMacSystemFont, 'Segoe UI', Roboto, Helvetica, Arial, sans-serif;dominant-baseline:middle;text-anchor:middle;fill:#ffffff;stroke-width:0.439972;opacity:1;fill-opacity:1"
       class="key-text"
       transform="scale(1.0633311,0.94044084)"
       aria-label="R" />
  </g>
</svg>
